# xmcd
#
# Track frame offsets:
#	150
#	15252
#	24612
#	37350
#	47222
#	61894
#	75096
#	89393
#	104041
#	118740
#	133351
#	148849
#
# Disc length: 2105 seconds
#
# Revision: 1
# Processed by: cddbd v1.5.2PL0 Copyright (c) Steve Scherf et al.
# Submitted via: audiograbber 1.83.01
#
DISCID=a808370c
DTITLE=Esther Phillips - Release Me (Reflections Of County and Western Greats)
DYEAR=2008
DGENRE=Soul
TTITLE0=Release Me
TTITLE1=I Really Don't Want To Know
TTITLE2=Am I That Easy To Forget
TTITLE3=Why Should We Try Anymore
TTITLE4=I've Forgotten More Than You'll Ever Know About Him
TTITLE5=I'd Fight The World
TTITLE6=I Can't Help It
TTITLE7=Be Honest With Me
TTITLE8=After Loving You
TTITLE9=Just Out Of Reach
TTITLE10=No Headstone On My Grave
TTITLE11=Don't Feel Rained On
EXTD=
EXTT0=
EXTT1=
EXTT2=
EXTT3=
EXTT4=
EXTT5=
EXTT6=
EXTT7=
EXTT8=
EXTT9=
EXTT10=
EXTT11=
PLAYORDER=
